<svg xmlns="http://www.w3.org/2000/svg">

<symbol id="back"  height="16" width="14" viewBox="0 0 448 512"><!--!Font Awesome Free 6.5.1 by @fontawesome - https://fontawesome.com License - https://fontawesome.com/license/free Copyright 2024 Fonticons, Inc.--><path d="M9.4 233.4c-12.5 12.5-12.5 32.8 0 45.3l160 160c12.5 12.5 32.8 12.5 45.3 0s12.5-32.8 0-45.3L109.2 288 416 288c17.7 0 32-14.3 32-32s-14.3-32-32-32l-306.7 0L214.6 118.6c12.5-12.5 12.5-32.8 0-45.3s-32.8-12.5-45.3 0l-160 160z"/></symbol>

<symbol id="category" height="16"  width="16" viewBox="0 0 512 512"><!--!Font Awesome Free 6.5.1 by @fontawesome - https://fontawesome.com License - https://fontawesome.com/license/free Copyright 2024 Fonticons, Inc.--><path d="M40 48C26.7 48 16 58.7 16 72v48c0 13.3 10.7 24 24 24H88c13.3 0 24-10.7 24-24V72c0-13.3-10.7-24-24-24H40zM192 64c-17.7 0-32 14.3-32 32s14.3 32 32 32H480c17.7 0 32-14.3 32-32s-14.3-32-32-32H192zm0 160c-17.7 0-32 14.3-32 32s14.3 32 32 32H480c17.7 0 32-14.3 32-32s-14.3-32-32-32H192zm0 160c-17.7 0-32 14.3-32 32s14.3 32 32 32H480c17.7 0 32-14.3 32-32s-14.3-32-32-32H192zM16 232v48c0 13.3 10.7 24 24 24H88c13.3 0 24-10.7 24-24V232c0-13.3-10.7-24-24-24H40c-13.3 0-24 10.7-24 24zM40 368c-13.3 0-24 10.7-24 24v48c0 13.3 10.7 24 24 24H88c13.3 0 24-10.7 24-24V392c0-13.3-10.7-24-24-24H40z"/></symbol>

<symbol id="email" height="16"  width="16" viewBox="0 0 512 512"><!--!Font Awesome Free 6.5.1 by @fontawesome - https://fontawesome.com License - https://fontawesome.com/license/free Copyright 2024 Fonticons, Inc.--><path d="M256 64C150 64 64 150 64 256s86 192 192 192c17.7 0 32 14.3 32 32s-14.3 32-32 32C114.6 512 0 397.4 0 256S114.6 0 256 0S512 114.6 512 256v32c0 53-43 96-96 96c-29.3 0-55.6-13.2-73.2-33.9C320 371.1 289.5 384 256 384c-70.7 0-128-57.3-128-128s57.3-128 128-128c27.9 0 53.7 8.9 74.7 24.1c5.7-5 13.1-8.1 21.3-8.1c17.7 0 32 14.3 32 32v80 32c0 17.7 14.3 32 32 32s32-14.3 32-32V256c0-106-86-192-192-192zm64 192a64 64 0 1 0 -128 0 64 64 0 1 0 128 0z"/></symbol>

<symbol id="search" height="16"  width="16" viewBox="0 0 512 512"><!--!Font Awesome Free 6.5.1 by @fontawesome - https://fontawesome.com License - https://fontawesome.com/license/free Copyright 2024 Fonticons, Inc.--><path d="M416 208c0 45.9-14.9 88.3-40 122.7L502.6 457.4c12.5 12.5 12.5 32.8 0 45.3s-32.8 12.5-45.3 0L330.7 376c-34.4 25.2-76.8 40-122.7 40C93.1 416 0 322.9 0 208S93.1 0 208 0S416 93.1 416 208zM208 352a144 144 0 1 0 0-288 144 144 0 1 0 0 288z"/></symbol>

<symbol id="user" height="16" width="14" viewBox="0 0 448 512"><!--!Font Awesome Free 6.5.1 by @fontawesome - https://fontawesome.com License - https://fontawesome.com/license/free Copyright 2024 Fonticons, Inc.--><path d="M224 256A128 128 0 1 0 224 0a128 128 0 1 0 0 256zm-45.7 48C79.8 304 0 383.8 0 482.3C0 498.7 13.3 512 29.7 512H418.3c16.4 0 29.7-13.3 29.7-29.7C448 383.8 368.2 304 269.7 304H178.3z"/></symbol>

<symbol id="heart" height="16" width="16" viewBox="0 0 512 512"><!--!Font Awesome Free 6.5.1 by @fontawesome - https://fontawesome.com License - https://fontawesome.com/license/free Copyright 2024 Fonticons, Inc.--><path d="M225.8 468.2l-2.5-2.3L48.1 303.2C17.4 274.7 0 234.7 0 192.8v-3.3c0-70.4 50-130.8 119.2-144C158.6 37.9 198.9 47 231 69.6c9 6.4 17.4 13.8 25 22.3c4.2-4.8 8.7-9.2 13.5-13.3c3.7-3.2 7.5-6.2 11.5-9c0 0 0 0 0 0C313.1 47 353.4 37.9 392.8 45.4C462 58.6 512 119.1 512 189.5v3.3c0 41.9-17.4 81.9-48.1 110.4L288.7 465.9l-2.5 2.3c-8.2 7.6-19 11.9-30.2 11.9s-22-4.2-30.2-11.9zM239.1 145c-.4-.3-.7-.7-1-1.1l-17.8-20c0 0-.1-.1-.1-.1c0 0 0 0 0 0c-23.1-25.9-58-37.7-92-31.2C81.6 101.5 48 142.1 48 189.5v3.3c0 28.5 11.9 55.8 32.8 75.2L256 430.7 431.2 268c20.9-19.4 32.8-46.7 32.8-75.2v-3.3c0-47.3-33.6-88-80.1-96.9c-34-6.5-69 5.4-92 31.2c0 0 0 0-.1 .1s0 0-.1 .1l-17.8 20c-.3 .4-.7 .7-1 1.1c-4.5 4.5-10.6 7-16.9 7s-12.4-2.5-16.9-7z"/></symbol>

<symbol id="key" height="16"  width="16" viewBox="0 0 512 512"><!--!Font Awesome Free 6.5.1 by @fontawesome - https://fontawesome.com License - https://fontawesome.com/license/free Copyright 2024 Fonticons, Inc.--><path d="M336 352c97.2 0 176-78.8 176-176S433.2 0 336 0S160 78.8 160 176c0 18.7 2.9 36.8 8.3 53.7L7 391c-4.5 4.5-7 10.6-7 17v80c0 13.3 10.7 24 24 24h80c13.3 0 24-10.7 24-24V448h40c13.3 0 24-10.7 24-24V384h40c6.4 0 12.5-2.5 17-7l33.3-33.3c16.9 5.4 35 8.3 53.7 8.3zM376 96a40 40 0 1 1 0 80 40 40 0 1 1 0-80z"/></symbol>

<symbol id="add" height="16" width="14" viewBox="0 0 448 512"><!--!Font Awesome Free 6.5.1 by @fontawesome - https://fontawesome.com License - https://fontawesome.com/license/free Copyright 2024 Fonticons, Inc.--><path d="M256 80c0-17.7-14.3-32-32-32s-32 14.3-32 32V224H48c-17.7 0-32 14.3-32 32s14.3 32 32 32H192V432c0 17.7 14.3 32 32 32s32-14.3 32-32V288H400c17.7 0 32-14.3 32-32s-14.3-32-32-32H256V80z"/></symbol>

<symbol id="warning" height="16"  width="16" viewBox="0 0 512 512"><!--!Font Awesome Free 6.5.1 by @fontawesome - https://fontawesome.com License - https://fontawesome.com/license/free Copyright 2024 Fonticons, Inc.--><path d="M256 32c14.2 0 27.3 7.5 34.5 19.8l216 368c7.3 12.4 7.3 27.7 .2 40.1S486.3 480 472 480H40c-14.3 0-27.6-7.7-34.7-20.1s-7-27.8 .2-40.1l216-368C228.7 39.5 241.8 32 256 32zm0 128c-13.3 0-24 10.7-24 24V296c0 13.3 10.7 24 24 24s24-10.7 24-24V184c0-13.3-10.7-24-24-24zm32 224a32 32 0 1 0 -64 0 32 32 0 1 0 64 0z"/></symbol>

<symbol id="home" height="16" width="18" viewBox="0 0 576 512"><!--!Font Awesome Free 6.5.1 by @fontawesome - https://fontawesome.com License - https://fontawesome.com/license/free Copyright 2024 Fonticons, Inc.--><path d="M575.8 255.5c0 18-15 32.1-32 32.1h-32l.7 160.2c0 2.7-.2 5.4-.5 8.1V472c0 22.1-17.9 40-40 40H456c-1.1 0-2.2 0-3.3-.1c-1.4 .1-2.8 .1-4.2 .1H416 392c-22.1 0-40-17.9-40-40V448 384c0-17.7-14.3-32-32-32H256c-17.7 0-32 14.3-32 32v64 24c0 22.1-17.9 40-40 40H160 128.1c-1.5 0-3-.1-4.5-.2c-1.2 .1-2.4 .2-3.6 .2H104c-22.1 0-40-17.9-40-40V360c0-.9 0-1.9 .1-2.8V287.6H32c-18 0-32-14-32-32.1c0-9 3-17 10-24L266.4 8c7-7 15-8 22-8s15 2 21 7L564.8 231.5c8 7 12 15 11 24z"/></symbol>

<symbol id="admin" height="16" width="14" viewBox="0 0 448 512"><!--!Font Awesome Free 6.5.1 by @fontawesome - https://fontawesome.com License - https://fontawesome.com/license/free Copyright 2024 Fonticons, Inc.--><path d="M0 32v448h448V32H0zm316.5 325.2L224 445.9l-92.5-88.7 64.5-184-64.5-86.6h184.9L252 173.2l64.5 184z"/></symbol>

<symbol id="heart-full" height="16"  width="16" viewBox="0 0 512 512"><!--!Font Awesome Free 6.5.1 by @fontawesome - https://fontawesome.com License - https://fontawesome.com/license/free Copyright 2024 Fonticons, Inc.--><path d="M47.6 300.4L228.3 469.1c7.5 7 17.4 10.9 27.7 10.9s20.2-3.9 27.7-10.9L464.4 300.4c30.4-28.3 47.6-68 47.6-109.5v-5.8c0-69.9-50.5-129.5-119.4-141C347 36.5 300.6 51.4 268 84L256 96 244 84c-32.6-32.6-79-47.5-124.6-39.9C50.5 55.6 0 115.2 0 185.1v5.8c0 41.5 17.2 81.2 47.6 109.5z"/></symbol>

<symbol id="user" height="16" width="14" viewBox="0 0 448 512"><!--!Font Awesome Free 6.5.1 by @fontawesome - https://fontawesome.com License - https://fontawesome.com/license/free Copyright 2024 Fonticons, Inc.--><path d="M224 256A128 128 0 1 0 224 0a128 128 0 1 0 0 256zm-45.7 48C79.8 304 0 383.8 0 482.3C0 498.7 13.3 512 29.7 512H418.3c16.4 0 29.7-13.3 29.7-29.7C448 383.8 368.2 304 269.7 304H178.3z"/></symbol>

<symbol id="group" height="16" width="20" viewBox="0 0 640 512"><!--!Font Awesome Free 6.5.1 by @fontawesome - https://fontawesome.com License - https://fontawesome.com/license/free Copyright 2024 Fonticons, Inc.--><path d="M72 88a56 56 0 1 1 112 0A56 56 0 1 1 72 88zM64 245.7C54 256.9 48 271.8 48 288s6 31.1 16 42.3V245.7zm144.4-49.3C178.7 222.7 160 261.2 160 304c0 34.3 12 65.8 32 90.5V416c0 17.7-14.3 32-32 32H96c-17.7 0-32-14.3-32-32V389.2C26.2 371.2 0 332.7 0 288c0-61.9 50.1-112 112-112h32c24 0 46.2 7.5 64.4 20.3zM448 416V394.5c20-24.7 32-56.2 32-90.5c0-42.8-18.7-81.3-48.4-107.7C449.8 183.5 472 176 496 176h32c61.9 0 112 50.1 112 112c0 44.7-26.2 83.2-64 101.2V416c0 17.7-14.3 32-32 32H480c-17.7 0-32-14.3-32-32zm8-328a56 56 0 1 1 112 0A56 56 0 1 1 456 88zM576 245.7v84.7c10-11.3 16-26.1 16-42.3s-6-31.1-16-42.3zM320 32a64 64 0 1 1 0 128 64 64 0 1 1 0-128zM240 304c0 16.2 6 31 16 42.3V261.7c-10 11.3-16 26.1-16 42.3zm144-42.3v84.7c10-11.3 16-26.1 16-42.3s-6-31.1-16-42.3zM448 304c0 44.7-26.2 83.2-64 101.2V448c0 17.7-14.3 32-32 32H288c-17.7 0-32-14.3-32-32V405.2c-37.8-18-64-56.5-64-101.2c0-61.9 50.1-112 112-112h32c61.9 0 112 50.1 112 112z"/></symbol>

<symbol id="exit" height="16"  width="16" viewBox="0 0 512 512"><!--!Font Awesome Free 6.5.1 by @fontawesome - https://fontawesome.com License - https://fontawesome.com/license/free Copyright 2024 Fonticons, Inc.--><path d="M502.6 278.6c12.5-12.5 12.5-32.8 0-45.3l-128-128c-12.5-12.5-32.8-12.5-45.3 0s-12.5 32.8 0 45.3L402.7 224 192 224c-17.7 0-32 14.3-32 32s14.3 32 32 32l210.7 0-73.4 73.4c-12.5 12.5-12.5 32.8 0 45.3s32.8 12.5 45.3 0l128-128zM160 96c17.7 0 32-14.3 32-32s-14.3-32-32-32L96 32C43 32 0 75 0 128L0 384c0 53 43 96 96 96l64 0c17.7 0 32-14.3 32-32s-14.3-32-32-32l-64 0c-17.7 0-32-14.3-32-32l0-256c0-17.7 14.3-32 32-32l64 0z"/></symbol>

<symbol id="favourite" height="16"  width="16" viewBox="0 0 512 512"><!--!Font Awesome Free 6.5.1 by @fontawesome - https://fontawesome.com License - https://fontawesome.com/license/free Copyright 2024 Fonticons, Inc.--><path d="M47.6 300.4L228.3 469.1c7.5 7 17.4 10.9 27.7 10.9s20.2-3.9 27.7-10.9L464.4 300.4c30.4-28.3 47.6-68 47.6-109.5v-5.8c0-69.9-50.5-129.5-119.4-141C347 36.5 300.6 51.4 268 84L256 96 244 84c-32.6-32.6-79-47.5-124.6-39.9C50.5 55.6 0 115.2 0 185.1v5.8c0 41.5 17.2 81.2 47.6 109.5z"/></symbol>

<symbol id="edit" height="16"  width="16" viewBox="0 0 512 512"><!--!Font Awesome Free 6.5.1 by @fontawesome - https://fontawesome.com License - https://fontawesome.com/license/free Copyright 2024 Fonticons, Inc.--><path d="M471.6 21.7c-21.9-21.9-57.3-21.9-79.2 0L362.3 51.7l97.9 97.9 30.1-30.1c21.9-21.9 21.9-57.3 0-79.2L471.6 21.7zm-299.2 220c-6.1 6.1-10.8 13.6-13.5 21.9l-29.6 88.8c-2.9 8.6-.6 18.1 5.8 24.6s15.9 8.7 24.6 5.8l88.8-29.6c8.2-2.7 15.7-7.4 21.9-13.5L437.7 172.3 339.7 74.3 172.4 241.7zM96 64C43 64 0 107 0 160V416c0 53 43 96 96 96H352c53 0 96-43 96-96V320c0-17.7-14.3-32-32-32s-32 14.3-32 32v96c0 17.7-14.3 32-32 32H96c-17.7 0-32-14.3-32-32V160c0-17.7 14.3-32 32-32h96c17.7 0 32-14.3 32-32s-14.3-32-32-32H96z"/></symbol>

<symbol id="delete" height="16" width="14" viewBox="0 0 448 512"><!--!Font Awesome Free 6.5.1 by @fontawesome - https://fontawesome.com License - https://fontawesome.com/license/free Copyright 2024 Fonticons, Inc.--><path d="M135.2 17.7C140.6 6.8 151.7 0 163.8 0H284.2c12.1 0 23.2 6.8 28.6 17.7L320 32h96c17.7 0 32 14.3 32 32s-14.3 32-32 32H32C14.3 96 0 81.7 0 64S14.3 32 32 32h96l7.2-14.3zM32 128H416V448c0 35.3-28.7 64-64 64H96c-35.3 0-64-28.7-64-64V128zm96 64c-8.8 0-16 7.2-16 16V432c0 8.8 7.2 16 16 16s16-7.2 16-16V208c0-8.8-7.2-16-16-16zm96 0c-8.8 0-16 7.2-16 16V432c0 8.8 7.2 16 16 16s16-7.2 16-16V208c0-8.8-7.2-16-16-16zm96 0c-8.8 0-16 7.2-16 16V432c0 8.8 7.2 16 16 16s16-7.2 16-16V208c0-8.8-7.2-16-16-16z"/></symbol>

<symbol id="more" height="16" width="16" viewBox="0 0 512 512"><!--!Font Awesome Free 6.5.1 by @fontawesome - https://fontawesome.com License - https://fontawesome.com/license/free Copyright 2024 Fonticons, Inc.--><path d="M470.6 278.6c12.5-12.5 12.5-32.8 0-45.3l-160-160c-12.5-12.5-32.8-12.5-45.3 0s-12.5 32.8 0 45.3L402.7 256 265.4 393.4c-12.5 12.5-12.5 32.8 0 45.3s32.8 12.5 45.3 0l160-160zm-352 160l160-160c12.5-12.5 12.5-32.8 0-45.3l-160-160c-12.5-12.5-32.8-12.5-45.3 0s-12.5 32.8 0 45.3L210.7 256 73.4 393.4c-12.5 12.5-12.5 32.8 0 45.3s32.8 12.5 45.3 0z"/></symbol>

<symbol id="hashtag" height="16" width="14" viewBox="0 0 448 512"><!--!Font Awesome Free 6.5.1 by @fontawesome - https://fontawesome.com License - https://fontawesome.com/license/free Copyright 2024 Fonticons, Inc.--><path d="M181.3 32.4c17.4 2.9 29.2 19.4 26.3 36.8L197.8 128h95.1l11.5-69.3c2.9-17.4 19.4-29.2 36.8-26.3s29.2 19.4 26.3 36.8L357.8 128H416c17.7 0 32 14.3 32 32s-14.3 32-32 32H347.1L325.8 320H384c17.7 0 32 14.3 32 32s-14.3 32-32 32H315.1l-11.5 69.3c-2.9 17.4-19.4 29.2-36.8 26.3s-29.2-19.4-26.3-36.8l9.8-58.7H155.1l-11.5 69.3c-2.9 17.4-19.4 29.2-36.8 26.3s-29.2-19.4-26.3-36.8L90.2 384H32c-17.7 0-32-14.3-32-32s14.3-32 32-32h68.9l21.3-128H64c-17.7 0-32-14.3-32-32s14.3-32 32-32h68.9l11.5-69.3c2.9-17.4 19.4-29.2 36.8-26.3zM187.1 192L165.8 320h95.1l21.3-128H187.1z"/></symbol>

<symbol id="random" height="16" width="16" viewBox="0 0 640 512"><!--!Font Awesome Free 6.5.1 by @fontawesome - https://fontawesome.com License - https://fontawesome.com/license/free Copyright 2024 Fonticons, Inc.--><path d="M274.9 34.3c-28.1-28.1-73.7-28.1-101.8 0L34.3 173.1c-28.1 28.1-28.1 73.7 0 101.8L173.1 413.7c28.1 28.1 73.7 28.1 101.8 0L413.7 274.9c28.1-28.1 28.1-73.7 0-101.8L274.9 34.3zM200 224a24 24 0 1 1 48 0 24 24 0 1 1 -48 0zM96 200a24 24 0 1 1 0 48 24 24 0 1 1 0-48zM224 376a24 24 0 1 1 0-48 24 24 0 1 1 0 48zM352 200a24 24 0 1 1 0 48 24 24 0 1 1 0-48zM224 120a24 24 0 1 1 0-48 24 24 0 1 1 0 48zm96 328c0 35.3 28.7 64 64 64H576c35.3 0 64-28.7 64-64V256c0-35.3-28.7-64-64-64H461.7c11.6 36 3.1 77-25.4 105.5L320 413.8V448zM480 328a24 24 0 1 1 0 48 24 24 0 1 1 0-48z"/></symbol>

<symbol id="posts" height="16" width="16" viewBox="0 0 512 512"><!--!Font Awesome Free 6.5.1 by @fontawesome - https://fontawesome.com License - https://fontawesome.com/license/free Copyright 2024 Fonticons, Inc.--><path d="M96 96c0-35.3 28.7-64 64-64H448c35.3 0 64 28.7 64 64V416c0 35.3-28.7 64-64 64H80c-44.2 0-80-35.8-80-80V128c0-17.7 14.3-32 32-32s32 14.3 32 32V400c0 8.8 7.2 16 16 16s16-7.2 16-16V96zm64 24v80c0 13.3 10.7 24 24 24H296c13.3 0 24-10.7 24-24V120c0-13.3-10.7-24-24-24H184c-13.3 0-24 10.7-24 24zm208-8c0 8.8 7.2 16 16 16h48c8.8 0 16-7.2 16-16s-7.2-16-16-16H384c-8.8 0-16 7.2-16 16zm0 96c0 8.8 7.2 16 16 16h48c8.8 0 16-7.2 16-16s-7.2-16-16-16H384c-8.8 0-16 7.2-16 16zM160 304c0 8.8 7.2 16 16 16H432c8.8 0 16-7.2 16-16s-7.2-16-16-16H176c-8.8 0-16 7.2-16 16zm0 96c0 8.8 7.2 16 16 16H432c8.8 0 16-7.2 16-16s-7.2-16-16-16H176c-8.8 0-16 7.2-16 16z"/></symbol>

<symbol id="folder" height="16" width="18"  viewBox="0 0 576 512"><!--!Font Awesome Free 6.5.1 by @fontawesome - https://fontawesome.com License - https://fontawesome.com/license/free Copyright 2024 Fonticons, Inc.--><path d="M88.7 223.8L0 375.8V96C0 60.7 28.7 32 64 32H181.5c17 0 33.3 6.7 45.3 18.7l26.5 26.5c12 12 28.3 18.7 45.3 18.7H416c35.3 0 64 28.7 64 64v32H144c-22.8 0-43.8 12.1-55.3 31.8zm27.6 16.1C122.1 230 132.6 224 144 224H544c11.5 0 22 6.1 27.7 16.1s5.7 22.2-.1 32.1l-112 192C453.9 474 443.4 480 432 480H32c-11.5 0-22-6.1-27.7-16.1s-5.7-22.2 .1-32.1l112-192z"/></symbol>

<symbol id="logo" class="icon icon-tabler icon-tabler-bulb" width="24" height="24" viewBox="0 0 24 24" stroke-width="1.5" stroke="#4b6ed6" fill="none" stroke-linecap="round" stroke-linejoin="round">
  <path stroke="none" d="M0 0h24v24H0z" fill="none"/>
  <path d="M3 12h1m8 -9v1m8 8h1m-15.4 -6.4l.7 .7m12.1 -.7l-.7 .7" />
  <path d="M9 16a5 5 0 1 1 6 0a3.5 3.5 0 0 0 -1 3a2 2 0 0 1 -4 0a3.5 3.5 0 0 0 -1 -3" />
  <path d="M9.7 17l4.6 0" />
</symbol>

<symbol id="telegram" x="0px" y="0px" width="50" height="50" viewBox="0 0 48 48">
<path fill="#74cccf" d="M22.5,3.5C18,4,16.525,4.799,13,7c-2.649,1.654-4.43,3.726-5.687,6.586S5.113,19.437,4.5,22.5	c-0.5,2.5,0,6,1,8c1.74,3.481,2.509,5.01,5,8c0.582,0.698,2.225,1.561,2.961,2.094c0.941,0.681,1.918,1.601,3.039,1.906	C21.235,43.786,25,44,30,43c4.811-0.962,8.552-3.936,10.942-8.221c0.885-1.586,1.48-3.318,1.968-5.068	c0.629-2.256,1.09-4.587,0.987-6.927c-0.14-3.173-1.67-8.619-3.397-11.284C36.55,5.404,29.752,3.929,22.5,3.5z"></path><path fill="#bcbcbc" d="M23.171,30.204l-3.426,3.374c0,0-0.149,0.115-0.348,0.12c-0.069,0.002-0.143-0.009-0.219-0.043	l0.964-5.965L23.171,30.204z"></path><path fill="#010101" d="M24.173,44.128c-2.508,0-4.975-0.377-7.804-1.146c-0.965-0.262-1.782-0.895-2.572-1.506	c-0.212-0.164-0.422-0.326-0.629-0.477c-0.229-0.166-0.549-0.364-0.896-0.58c-0.802-0.499-1.71-1.064-2.156-1.6	c-2.538-3.047-3.329-4.629-5.063-8.097c-1.084-2.169-1.542-5.824-1.043-8.322c0.619-3.095,1.577-6.128,2.845-9.017	c1.297-2.95,3.166-5.114,5.88-6.809c3.456-2.158,5.044-3.054,9.709-3.573l0.042-0.004l0.042,0.002	c6.715,0.397,14.151,1.685,18.391,8.227c1.822,2.812,3.339,8.409,3.477,11.534c0.118,2.693-0.517,5.333-1.005,7.083	c-0.605,2.171-1.226,3.768-2.013,5.178c-2.553,4.574-6.453,7.503-11.281,8.468C27.983,43.913,26.066,44.128,24.173,44.128z M22.513,4.001c-4.368,0.489-5.793,1.265-9.249,3.423C10.694,9.029,9,10.992,7.771,13.787c-1.24,2.823-2.175,5.787-2.78,8.811	c-0.462,2.309-0.042,5.681,0.957,7.678c1.698,3.396,2.473,4.946,4.937,7.903c0.343,0.412,1.215,0.955,1.916,1.391	c0.37,0.23,0.71,0.442,0.955,0.619c0.216,0.156,0.434,0.325,0.655,0.496c0.712,0.552,1.449,1.122,2.222,1.332	c4.8,1.303,8.521,1.441,13.271,0.492c4.531-0.906,8.198-3.664,10.604-7.974c0.746-1.339,1.339-2.868,1.923-4.96	c0.757-2.714,1.056-4.802,0.968-6.77c-0.132-2.997-1.578-8.353-3.316-11.034C36.093,5.617,28.967,4.387,22.513,4.001z"></path><path fill="#bcbcbc" d="M20.145,27.597c-0.249,1.15-0.1,2.122-0.431,3.251c-0.215,0.733-0.503,2.437-1.095,2.919	c-1.393-2.156-1.758-5.241-2.709-7.449l12.488-7.993l1.013,0.024l-0.284,1.074L20.145,27.597z"></path><path fill="#d6e5e5" d="M20.678,28.105c1.058,1.366,1.839,2.075,3.183,3.161c1.363,1.102,2.786,2.022,4.292,2.919	c0.164,0.098,0.831,0.406,1.004,0.488c0.427,0.202,0.722-0.214,0.797-0.414c0.592-1.579,0.724-2.167,1.093-3.386	c0.681-2.256,1.005-4.059,1.453-6.372c0.579-2.986,1.204-6.498,1.387-9.535c0.021-0.35-0.014-0.79-0.339-0.921	c-0.141-0.057-0.892-0.023-1.042,0.001c-3.353,0.555-5.975,1.721-9.166,2.893c-0.795,0.292-1.591,0.584-2.386,0.876	c-2.897,1.063-4.01,1.808-6.906,2.871c-0.699,0.257-2.301,1.067-3.179,1.46c-0.68,0.304-0.843,0.363-0.485,1.017	c0.215,0.392,1.505,1.33,1.895,1.548c0.897,0.502,1.54,0.795,2.518,1.109c0.372,0.119,0.487,0.193,0.878,0.185	c0.487-0.01,1.108-0.512,1.532-0.753c2.535-1.442,3.637-2.407,6.041-3.835c1.618-0.961,3.41-2.378,5.151-3.09	c0.336-0.137,0.779-0.252,1.013,0.024c0.264,0.31-0.006,0.776-0.284,1.074c-0.893,0.958-2.535,2.681-3.561,3.496	c-2.025,1.61-3.887,2.914-5.324,4.503C20.108,27.573,20.554,27.945,20.678,28.105z"></path><path fill="#010101" d="M29.382,35.228c-0.146,0-0.295-0.034-0.438-0.103l-0.129-0.061c-0.273-0.129-0.774-0.365-0.917-0.45	c-1.22-0.727-2.816-1.721-4.351-2.96c-1.389-1.122-2.189-1.856-3.264-3.243l0,0c-0.022-0.029-0.06-0.066-0.101-0.108	c-0.235-0.245-0.725-0.756-0.31-1.215c1.142-1.263,2.551-2.354,4.042-3.51c0.437-0.338,0.885-0.686,1.342-1.049	c0.996-0.791,2.624-2.498,3.506-3.445c0.175-0.188,0.249-0.355,0.257-0.421c-0.023,0.015-0.15,0.012-0.431,0.126	c-1.109,0.454-2.265,1.221-3.381,1.963c-0.583,0.387-1.154,0.767-1.705,1.094c-1.093,0.649-1.926,1.209-2.732,1.751	c-0.95,0.639-1.932,1.3-3.318,2.088c-0.097,0.055-0.205,0.125-0.319,0.199c-0.44,0.285-0.94,0.607-1.448,0.619	c-0.415-0.002-0.608-0.062-0.863-0.149l-0.18-0.061c-0.963-0.309-1.646-0.608-2.609-1.148c-0.324-0.181-1.781-1.182-2.089-1.744	c-0.161-0.295-0.323-0.638-0.206-0.988c0.124-0.367,0.446-0.511,0.892-0.711c0.354-0.158,0.774-0.359,1.21-0.567	c0.773-0.369,1.572-0.75,2.035-0.92c1.431-0.525,2.441-0.981,3.419-1.422c0.994-0.448,2.021-0.912,3.487-1.449l2.387-0.876	c0.61-0.224,1.199-0.448,1.776-0.667c2.428-0.922,4.721-1.792,7.479-2.249c0.01-0.001,0.979-0.105,1.312,0.028	c0.328,0.132,0.707,0.485,0.65,1.416c-0.185,3.073-0.809,6.577-1.395,9.599l-0.114,0.59c-0.388,2.01-0.723,3.746-1.352,5.831	L31.3,31.779c-0.232,0.796-0.417,1.425-0.878,2.655c-0.092,0.244-0.324,0.578-0.679,0.722	C29.625,35.203,29.504,35.228,29.382,35.228z M20.827,27.529c0.029,0.031,0.057,0.06,0.077,0.081	c0.07,0.073,0.131,0.139,0.169,0.188l0,0c1.02,1.316,1.75,1.986,3.103,3.079c1.485,1.199,3.042,2.168,4.234,2.878	c0.129,0.076,0.583,0.288,0.83,0.404l0.133,0.062c0.029-0.005,0.095-0.086,0.114-0.139c0.447-1.194,0.627-1.808,0.854-2.583	l0.229-0.771c0.614-2.035,0.929-3.666,1.326-5.731l0.114-0.592c0.58-2.99,1.197-6.454,1.379-9.469	c0.021-0.344-0.047-0.441-0.047-0.442c-0.057,0.007-0.621,0.025-0.754,0.045c-2.66,0.44-4.907,1.294-7.287,2.198	c-0.581,0.22-1.174,0.445-1.787,0.67l-2.387,0.876c-1.432,0.525-2.443,0.981-3.42,1.422c-0.994,0.448-2.021,0.911-3.486,1.449	c-0.419,0.154-1.231,0.542-1.948,0.884c-0.444,0.212-0.872,0.417-1.2,0.563c-0.127,0.057-0.25,0.112-0.335,0.155	c0.019,0.04,0.045,0.094,0.084,0.166c0.147,0.253,1.275,1.113,1.7,1.352c0.91,0.509,1.522,0.779,2.427,1.068l0.199,0.067	c0.217,0.074,0.292,0.095,0.517,0.095c0.224-0.005,0.647-0.278,0.926-0.459c0.132-0.085,0.256-0.165,0.368-0.229	c1.354-0.77,2.277-1.391,3.254-2.049c0.817-0.55,1.662-1.118,2.779-1.782c0.537-0.319,1.094-0.689,1.662-1.066	c1.157-0.77,2.354-1.565,3.556-2.057c0.883-0.362,1.349-0.112,1.584,0.162c0.389,0.458,0.273,1.125-0.299,1.74	c-1.101,1.182-2.622,2.757-3.615,3.547c-0.46,0.366-0.912,0.715-1.352,1.057C23.165,25.424,21.874,26.424,20.827,27.529z"></path><path fill="#010101" d="M18.62,34.268c-0.026,0-0.052-0.002-0.078-0.006c-0.14-0.022-0.265-0.104-0.342-0.223	c-0.887-1.373-1.364-3.059-1.824-4.688c-0.29-1.027-0.564-1.998-0.924-2.834c-0.109-0.254,0.007-0.548,0.261-0.657	c0.251-0.11,0.547,0.008,0.657,0.261c0.387,0.897,0.669,1.898,0.969,2.958c0.363,1.283,0.735,2.603,1.305,3.725	c0.185-0.468,0.337-1.089,0.435-1.49c0.057-0.233,0.108-0.442,0.156-0.605c0.166-0.566,0.201-1.099,0.237-1.663	c0.032-0.49,0.065-0.997,0.185-1.553c0.059-0.27,0.327-0.439,0.595-0.383c0.27,0.058,0.441,0.324,0.383,0.594	c-0.104,0.483-0.134,0.932-0.165,1.407c-0.039,0.593-0.079,1.207-0.275,1.879c-0.044,0.151-0.092,0.346-0.145,0.562	c-0.284,1.159-0.563,2.156-1.114,2.604C18.846,34.229,18.734,34.268,18.62,34.268z"></path><path fill="#010101" d="M18.757,34.248c-0.145,0-0.289-0.062-0.388-0.184c-0.175-0.214-0.143-0.529,0.071-0.703	c0.134-0.109,0.256-0.217,0.376-0.321c0.301-0.264,0.611-0.536,1.025-0.774c0.132-0.075,0.378-0.236,0.805-0.577	c0.118-0.094,0.404-0.398,0.626-0.651c0.221-0.251,0.373-0.411,0.525-0.571c0.146-0.153,0.291-0.306,0.502-0.546	c0.183-0.207,0.499-0.228,0.706-0.045c0.208,0.182,0.228,0.498,0.045,0.705c-0.222,0.253-0.375,0.414-0.528,0.575	c-0.145,0.151-0.29,0.304-0.499,0.542c-0.119,0.135-0.523,0.589-0.754,0.772c-0.382,0.306-0.696,0.529-0.931,0.663	c-0.327,0.188-0.576,0.407-0.865,0.659c-0.127,0.112-0.259,0.227-0.401,0.343C18.98,34.211,18.868,34.248,18.757,34.248z"></path>
</symbol>

<symbol id="github" x="0px" y="0px" width="50" height="50" viewBox="0 0 512 512">
<path fill="#283D5B" d="M346.4,231.4c-3.2-7.2-6.5-14.5-6.5-22.6c0-6.8,3.1-12.4,3.8-18.9c0.3-2.6,0.2-4.3-2.6-5c-2.8-0.6-5.4-0.5-8.1,0.4c-5.3,1.7-11.4,5.1-15,9.7c-0.2,3.5-4.1,6.8-7.7,4c-12.7-9.8-31.6-10.1-46.9-9.5c-14.4,0.6-29.8,2.3-43.5,7c-0.8,0.3-1.7,0.4-2.4,0.3c-1.2,0-2.5-0.5-3.6-1.5c-3.8-3.7-7.7-7.3-11.9-10.5c-4.4-3.3-10.1-7.8-15.8-8.1c-11.2-0.6-4.1,19.8-1.5,28.9c2.1,1.4,3.2,4.2,1.5,6.9c-4.8,7.2-13.5,12.8-16.5,21.2c-2.9,8.2-2.6,16.7-0.6,25.1c1.7,7.6,4.7,14.4,9.5,20.6c3.7,4.8,9.9,12.6,16.9,11.3c1.5-0.3,2.8,0.1,3.8,0.8c12.8,1.9,23.3,12,26.3,24.6c3.4,14.6-4.9,27.3-18.8,32.1c-14.6,5.1-28.1,0.4-35-13.4c-2.3-4.5-3.6-9.8-6.5-14c-1.9-2.7-4.3-3.8-7.1-4c2.2,10.8,1,22.9,9.4,31.1c9.5,9.2,22.5,7,34.5,8c9,0.8,15.6,5.7,13.8,15.5c-1.1,6.2-3.6,12.3-5.7,18.3c-2.1,6.1-2.5,11.3-2.6,17.5c1.5,0.2,3.1,0.5,4.6,0.7c29.4,3.7,59.2-1.1,86.4-12.5c-0.6-1.5-0.6-3.3,0.7-5c1.8-2.4,1.7-6.5,1.6-9.3c-0.2-4.8-0.9-9.7-2.1-14.4c-1.9-7.8-4.1-16.4-8.6-23.1c-5.3-8-12.9-15.6-14.2-25.5c-1.1-8.4,3.4-21.5,13.1-22.4c1.2-0.1,2.3,0.2,3.1,0.7c9.4-1.2,19-2.8,27.9-6.1c8.5-3.2,15.4-7.6,21.7-14.1c5.4-5.6,9.9-12.6,10.4-20.5C352.7,246.9,349.9,239.1,346.4,231.4z"></path><path fill="#D6E5E5" d="M405.9,222.7c-11-49-51-88.4-98.4-103.1c-22.4-6.9-46.3-9.3-69.4-5.1c-20.5,3.7-39.1,12.9-56.4,24.3c-18.5,12.3-36.1,27-49.3,45.1c-9.3,12.8-16.7,28.3-16.2,44.2c0,0.1-0.1,0.3-0.1,0.4c-0.3,5.6-0.9,11.1-1.4,16.7c-0.5,0.2-0.9,0.3-1.4,0.4c-0.6,6.6-1.6,13.3-1.8,20c-0.2,7-0.2,14,0.2,21.1c0.7,13.8,2.5,27.6,6.2,40.9c5.6,19.8,15,38.9,30.3,53c13.9,12.8,31.1,20.6,49.2,24.7v-0.7c0-0.2,0-0.5,0-0.7c0.1-4.9,0.5-9.5,2.2-14.5c2-6.2,4.8-12.5,6-18.9c0.6-3.4,0.6-3.9-2.8-4.4c-5.1-0.7-10.4-0.3-15.6-0.6c-6.1-0.4-12.4-1.3-17.9-4c-5.6-2.8-9.3-6.6-13.1-11.5c-8-10.4-5-24-9.6-35.6c-0.9-2.3,0.5-5.8,3.1-6.4c10.1-2.3,19.6-0.4,24.7,9.4c3.9,7.3,6,18.8,14.6,22.2c11,4.3,27.8-4.4,27-17.2c-0.7-11.3-9.4-20.2-20.6-21.3c-0.5,0-0.9-0.1-1.3-0.3c-8.4,0.2-15.8-5.7-21.1-12c-6-7.1-10.6-15.1-13-24.1c-2.8-10.6-3.7-21.3-0.7-31.9c2.7-9.5,10.3-15.4,16.1-22.7c-1.4-9.1-5.8-17.7-5.5-27.1c0.2-7.2,5.3-15.5,13.1-16.2c13.8-1.2,26.4,10.2,36,19.6c14.9-4.6,30.9-6.5,46.4-6.9c14.9-0.4,32.3,0.4,45.7,8c4.8-5.5,12.1-9.5,18.8-11.7c7-2.3,16.7-2.1,21.5,4.3c4.6,6,1.7,14.3-0.3,20.7c-2.9,9.4,0.4,17.7,4.3,26.2c4.1,9.1,7.7,19.1,6.7,29.3c-1,9.3-5,17.4-11.1,24.4c-6.9,7.9-15.1,14.2-25,17.9c-11.2,4.2-22.8,6.5-34.6,7.9c-0.9,0.1-1.7,0-2.4-0.2c-1,1.2-2.4,3.9-2.7,4.9c-0.7,2-0.8,4.1-0.4,6.2c0.9,4.6,3.9,8.8,6.6,12.5c4.8,6.6,9,12.9,11.8,20.7c3,8.4,5.4,17.4,6.2,26.3c0.4,4.4,0.5,9-0.6,13.3c15.7-7.8,30.2-17.9,43-29.8C390.2,325.7,417.6,274.8,405.9,222.7z"></path><path fill="#D6E5E5" d="M477.2,172.1c-21.3-43.4-61.6-77.5-104.2-99C330.3,51.4,280.8,40,232.9,47.6C154,60,77.6,117.9,55,195.5c0,0.9-0.2,1.7-0.7,2.6c-0.4,1.4-0.8,2.9-1.1,4.3c-0.5,1-1,2-1.4,3.1c-0.1,0.9-0.3,1.9-0.4,2.7c-0.9,4.1-2,8.2-2.7,12.3c-1.4,7.7-1.1,15.7-3.8,23c-0.2,2.1-0.5,4.2-0.8,6.3c0,0.3,0,0.5,0,0.7c-0.5,4.4-0.9,8.8-1.3,13.2c-0.8,9.2-1.2,18.4-1.1,27.6c0.3,18.1,2.4,36.2,6.9,53.7c8.7,33.3,25.5,64.8,52,87.3c18.2,15.5,39.5,25.7,62.4,32.3c25,7.3,51,11.4,77.1,11.5c51.5,0.1,103.2-13.9,145.6-43.7C464.1,377.2,523.2,265.6,477.2,172.1z M248.3,418.3c-46.2,4.2-96.9-9.2-123.2-50.1c-11.4-17.7-18-38.1-21.1-58.8c-1.6-10.8-2.5-21.7-2.5-32.6c0-5.7,0.1-11.4,0.4-17.1c0.4-6.3,1.6-12.5,1.8-18.7c0.1-2.4,1.6-4.1,3.5-4.8c-3.5-21.2,5.1-41.9,17.8-59c15-20.3,35.2-37,56.6-50.2c17.7-10.9,36.5-19.5,57.2-22.8c23-3.7,47.1-1.8,69.4,5.1c46.6,14.5,88.1,49.6,103.6,96.9C445.4,308.6,346.2,409.4,248.3,418.3z"></path><path d="M228,38.3c-8.6,1.5-17.1,3.5-25.5,5.9h124.2C294.6,35.3,260.8,32.6,228,38.3z"></path><path d="M476.9,151.2c-25.2-40.4-65.9-71.6-108.7-91.6c-13.4-6.2-27.3-11.4-41.6-15.4H202.5C130.4,65.3,65.6,121.4,45.1,193.9c-3.3,5.5-3.8,13.1-5.2,19.2c-1,4.3-1.7,8.7-2.3,13.1c-0.1,0.4-0.1,0.9-0.2,1.3c-0.1,0.3-0.2,0.5-0.2,0.8c-0.8,4.2-1.5,8.4-2.1,12.6c0,0.1-0.1,0.1-0.1,0.2c-0.5,1.2-0.6,2.3-0.4,3.2c-1,8.1-1.7,16.2-2.3,24.3c-0.8,11.4-0.9,22.9-0.3,34.3c1.3,22.3,5.6,44.5,13.3,65.5c15.3,41.8,45.5,76.5,86.1,95.3c23.1,10.6,48.8,16.7,73.9,20c25.5,3.3,51.5,3.1,77-0.6c50.9-7.4,98.5-29.7,136.1-64.8c36.4-33.9,65-77.6,78.1-125.8C509.7,244.6,503.4,193.6,476.9,151.2z M385.6,432.5c-42.4,29.8-94.1,43.8-145.6,43.7C214,476.1,188,472,163,464.7c-22.9-6.7-44.2-16.8-62.4-32.3c-26.5-22.5-43.3-54-52-87.3c-4.6-17.5-6.6-35.6-6.9-53.7c-0.2-9.2,0.2-18.4,1.1-27.6c0.4-4.4,0.8-8.8,1.3-13.2c0-0.2,0-0.5,0-0.7c0.3-2.1,0.6-4.2,0.8-6.3c2.7-7.3,2.4-15.4,3.8-23c0.8-4.1,1.8-8.2,2.7-12.3c0.2-0.8,0.3-1.7,0.4-2.7c0.4-1,0.9-2.1,1.4-3.1c0.4-1.4,0.7-2.9,1.1-4.3c0.5-0.9,0.8-1.8,0.7-2.6C77.6,117.9,154,60,232.9,47.6c47.9-7.6,97.3,3.8,140.1,25.5c42.6,21.5,82.8,55.7,104.2,99C523.2,265.6,464.1,377.2,385.6,432.5z"></path><path fill="#010101" d="M411.7,206.3c-15.6-47.3-57-82.4-103.6-96.9c-22.3-6.9-46.3-8.8-69.4-5.1c-20.7,3.3-39.5,11.8-57.2,22.8c-21.4,13.2-41.5,30-56.6,50.2c-12.7,17.1-21.3,37.8-17.8,59c-1.8,0.7-3.4,2.3-3.5,4.8c-0.2,6.2-1.5,12.5-1.8,18.7c-0.3,5.7-0.4,11.4-0.4,17.1c0.1,10.9,0.9,21.8,2.5,32.6c3.1,20.7,9.7,41.1,21.1,58.8c26.3,40.8,77,54.2,123.2,50.1C346.2,409.4,445.4,308.6,411.7,206.3z M299.2,390.3c-1.3,1.7-1.3,3.5-0.7,5c-27.2,11.4-57,16.2-86.4,12.5c-1.5-0.2-3.1-0.4-4.6-0.7c0.1-6.2,0.5-11.4,2.6-17.5c2-6,4.5-12.1,5.7-18.3c1.8-9.8-4.9-14.7-13.8-15.5c-12.1-1-25,1.1-34.5-8c-8.5-8.1-7.2-20.3-9.4-31.1c2.8,0.1,5.2,1.2,7.1,4c2.9,4.2,4.3,9.4,6.5,14c6.9,13.9,20.4,18.5,35,13.4c13.8-4.8,22.2-17.5,18.8-32.1c-3-12.6-13.5-22.7-26.3-24.6c-1-0.7-2.2-1.1-3.8-0.8c-7,1.3-13.1-6.5-16.9-11.3c-4.8-6.2-7.7-13-9.5-20.6c-1.9-8.4-2.3-16.9,0.6-25.1c3-8.4,11.7-13.9,16.5-21.2c1.8-2.7,0.6-5.5-1.5-6.9c-2.6-9.2-9.7-29.5,1.5-28.9c5.8,0.3,11.5,4.8,15.8,8.1c4.2,3.2,8.2,6.8,11.9,10.5c1.1,1.1,2.3,1.5,3.6,1.5c0.8,0.1,1.6,0,2.4-0.3c13.7-4.7,29.1-6.5,43.5-7c15.3-0.6,34.2-0.3,46.9,9.5c3.6,2.8,7.5-0.5,7.7-4c3.6-4.6,9.6-8,15-9.7c2.8-0.9,5.3-1,8.1-0.4c2.9,0.6,2.9,2.4,2.6,5c-0.7,6.5-3.8,12.1-3.8,18.9c0,8,3.2,15.4,6.5,22.6c3.5,7.7,6.3,15.6,5.7,24.1c-0.5,8-5,14.9-10.4,20.5c-6.3,6.5-13.2,11-21.7,14.1c-8.9,3.3-18.5,5-27.9,6.1c-0.8-0.5-1.8-0.8-3.1-0.7c-9.7,0.9-14.2,14-13.1,22.4c1.3,9.9,8.9,17.5,14.2,25.5c4.5,6.7,6.7,15.3,8.6,23.1c1.1,4.7,1.8,9.5,2.1,14.4C301,383.8,301.1,387.9,299.2,390.3z M353,360.3c-12.8,11.9-27.4,22-43,29.8c1.1-4.3,1-8.9,0.6-13.3c-0.8-8.9-3.2-17.9-6.2-26.3c-2.8-7.8-7-14-11.8-20.7c-2.7-3.8-5.7-7.9-6.6-12.5c-0.4-2.1-0.3-4.2,0.4-6.2c0.3-1,1.7-3.7,2.7-4.9c0.7,0.2,1.5,0.4,2.4,0.2c11.8-1.4,23.4-3.7,34.6-7.9c9.9-3.7,18-10,25-17.9c6.1-7,10.2-15.1,11.1-24.4c1-10.2-2.6-20.2-6.7-29.3c-3.8-8.6-7.2-16.8-4.3-26.2c2-6.4,4.9-14.7,0.3-20.7c-4.8-6.4-14.5-6.6-21.5-4.3c-6.7,2.2-14,6.2-18.8,11.7c-13.4-7.7-30.8-8.4-45.7-8c-15.5,0.4-31.5,2.2-46.4,6.9c-9.6-9.4-22.2-20.8-36-19.6c-7.8,0.7-12.9,9.1-13.1,16.2c-0.3,9.3,4.1,18,5.5,27.1c-5.8,7.3-13.4,13.3-16.1,22.7c-3,10.6-2.1,21.3,0.7,31.9c2.4,9,7,17,13,24.1c5.3,6.3,12.7,12.2,21.1,12c0.4,0.1,0.8,0.2,1.3,0.3c11.2,1.1,19.9,9.9,20.6,21.3c0.8,12.7-16.1,21.4-27,17.2c-8.6-3.4-10.8-14.8-14.6-22.2c-5.1-9.8-14.6-11.7-24.7-9.4c-2.6,0.6-4,4-3.1,6.4c4.6,11.6,1.5,25.2,9.6,35.6c3.8,4.9,7.5,8.7,13.1,11.5c5.5,2.7,11.8,3.6,17.9,4c5.2,0.3,10.4-0.1,15.6,0.6c3.4,0.5,3.4,1,2.8,4.4c-1.2,6.4-4,12.7-6,18.9c-1.6,5-2.1,9.6-2.2,14.5c0,0.2,0,0.5,0,0.7v0.7c-18.2-4.1-35.3-11.9-49.2-24.7c-15.3-14.1-24.8-33.2-30.3-53c-3.7-13.3-5.5-27.1-6.2-40.9c-0.4-7-0.4-14-0.2-21.1c0.2-6.7,1.2-13.3,1.8-20c0.5-0.1,1-0.2,1.4-0.4c0.5-5.6,1.1-11.1,1.4-16.7c0-0.1,0-0.3,0.1-0.4c-0.5-15.9,6.9-31.3,16.2-44.2c13.1-18.1,30.7-32.8,49.3-45.1c17.2-11.4,35.9-20.6,56.4-24.3c23.2-4.2,47-1.8,69.4,5.1c47.4,14.7,87.4,54.1,98.4,103.1C417.6,274.8,390.2,325.7,353,360.3z"></path>
</symbol>

</svg>
